<svg width="5351" height="953" viewBox="0 0 5351 953" fill="none" xmlns="http://www.w3.org/2000/svg">
<g clip-path="url(#clip0)">
<circle cx="476.5" cy="476.5" r="440.5" fill="#FFF176"/>
<path d="M666.613 263.6V359.5H536.413V755H416.713V359.5H286.513V263.6H666.613Z" fill="black"/>
<path d="M1444.65 624.5V755H1366.35C1310.55 755 1267.05 741.5 1235.85 714.5C1204.65 686.9 1189.05 642.2 1189.05 580.4V380.6H1127.85V252.8H1189.05V130.4H1342.95V252.8H1443.75V380.6H1342.95V582.2C1342.95 597.2 1346.55 608 1353.75 614.6C1360.95 621.2 1372.95 624.5 1389.75 624.5H1444.65ZM1499.77 503C1499.77 451.4 1509.37 406.1 1528.57 367.1C1548.37 328.1 1575.07 298.1 1608.67 277.1C1642.27 256.1 1679.77 245.6 1721.17 245.6C1756.57 245.6 1787.47 252.8 1813.87 267.2C1840.87 281.6 1861.57 300.5 1875.97 323.9V252.8H2029.87V755H1875.97V683.9C1860.97 707.3 1839.97 726.2 1812.97 740.6C1786.57 755 1755.67 762.2 1720.27 762.2C1679.47 762.2 1642.27 751.7 1608.67 730.7C1575.07 709.1 1548.37 678.8 1528.57 639.8C1509.37 600.2 1499.77 554.6 1499.77 503ZM1875.97 503.9C1875.97 465.5 1865.17 435.2 1843.57 413C1822.57 390.8 1796.77 379.7 1766.17 379.7C1735.57 379.7 1709.47 390.8 1687.87 413C1666.87 434.6 1656.37 464.6 1656.37 503C1656.37 541.4 1666.87 572 1687.87 594.8C1709.47 617 1735.57 628.1 1766.17 628.1C1796.77 628.1 1822.57 617 1843.57 594.8C1865.17 572.6 1875.97 542.3 1875.97 503.9ZM2295.11 89V755H2141.21V89H2295.11ZM2713.54 755L2560.54 544.4V755H2406.64V89H2560.54V457.1L2712.64 252.8H2902.54L2693.74 504.8L2904.34 755H2713.54ZM2932.39 503C2932.39 451.4 2941.99 406.1 2961.19 367.1C2980.99 328.1 3007.69 298.1 3041.29 277.1C3074.89 256.1 3112.39 245.6 3153.79 245.6C3189.19 245.6 3220.09 252.8 3246.49 267.2C3273.49 281.6 3294.19 300.5 3308.59 323.9V252.8H3462.49V755H3308.59V683.9C3293.59 707.3 3272.59 726.2 3245.59 740.6C3219.19 755 3188.29 762.2 3152.89 762.2C3112.09 762.2 3074.89 751.7 3041.29 730.7C3007.69 709.1 2980.99 678.8 2961.19 639.8C2941.99 600.2 2932.39 554.6 2932.39 503ZM3308.59 503.9C3308.59 465.5 3297.79 435.2 3276.19 413C3255.19 390.8 3229.39 379.7 3198.79 379.7C3168.19 379.7 3142.09 390.8 3120.49 413C3099.49 434.6 3088.99 464.6 3088.99 503C3088.99 541.4 3099.49 572 3120.49 594.8C3142.09 617 3168.19 628.1 3198.79 628.1C3229.39 628.1 3255.19 617 3276.19 594.8C3297.79 572.6 3308.59 542.3 3308.59 503.9ZM3853.73 624.5V755H3775.43C3719.63 755 3676.13 741.5 3644.93 714.5C3613.73 686.9 3598.13 642.2 3598.13 580.4V380.6H3536.93V252.8H3598.13V130.4H3752.03V252.8H3852.83V380.6H3752.03V582.2C3752.03 597.2 3755.63 608 3762.83 614.6C3770.03 621.2 3782.03 624.5 3798.83 624.5H3853.73ZM4016.85 200.6C3989.85 200.6 3967.65 192.8 3950.25 177.2C3933.45 161 3925.05 141.2 3925.05 117.8C3925.05 93.8 3933.45 74 3950.25 58.4C3967.65 42.2 3989.85 34.0999 4016.85 34.0999C4043.25 34.0999 4064.85 42.2 4081.65 58.4C4099.05 74 4107.75 93.8 4107.75 117.8C4107.75 141.2 4099.05 161 4081.65 177.2C4064.85 192.8 4043.25 200.6 4016.85 200.6ZM4093.35 252.8V755H3939.45V252.8H4093.35ZM4430.78 611L4539.68 252.8H4703.48L4525.28 755H4335.38L4157.18 252.8H4321.88L4430.78 611ZM5241.66 495.8C5241.66 510.2 5240.76 525.2 5238.96 540.8H4890.66C4893.06 572 4902.96 596 4920.36 612.8C4938.36 629 4960.26 637.1 4986.06 637.1C5024.46 637.1 5051.16 620.9 5066.16 588.5H5229.96C5221.56 621.5 5206.26 651.2 5184.06 677.6C5162.46 704 5135.16 724.7 5102.16 739.7C5069.16 754.7 5032.26 762.2 4991.46 762.2C4942.26 762.2 4898.46 751.7 4860.06 730.7C4821.66 709.7 4791.66 679.7 4770.06 640.7C4748.46 601.7 4737.66 556.1 4737.66 503.9C4737.66 451.7 4748.16 406.1 4769.16 367.1C4790.76 328.1 4820.76 298.1 4859.16 277.1C4897.56 256.1 4941.66 245.6 4991.46 245.6C5040.06 245.6 5083.26 255.8 5121.06 276.2C5158.86 296.6 5188.26 325.7 5209.26 363.5C5230.86 401.3 5241.66 445.4 5241.66 495.8ZM5084.16 455.3C5084.16 428.9 5075.16 407.9 5057.16 392.3C5039.16 376.7 5016.66 368.9 4989.66 368.9C4963.86 368.9 4941.96 376.4 4923.96 391.4C4906.56 406.4 4895.76 427.7 4891.56 455.3H5084.16Z" fill="#212121"/>
</g>
<defs>
<clipPath id="clip0">
<rect width="5351" height="953" fill="white"/>
</clipPath>
</defs>
</svg>
